<?xml version="1.0" encoding="iso-8859-1"?>
<!-- Uploaded to: SVG Repo, www.svgrepo.com, Generator: SVG Repo Mixer Tools -->
<!DOCTYPE svg PUBLIC "-//W3C//DTD SVG 1.1//EN" "http://www.w3.org/Graphics/SVG/1.1/DTD/svg11.dtd">
<svg fill="#000000" version="1.1" id="Capa_1" xmlns="http://www.w3.org/2000/svg" xmlns:xlink="http://www.w3.org/1999/xlink" 
	 width="800px" height="800px" viewBox="0 0 592.268 592.268"
	 xml:space="preserve">
<g>
	<path d="M489.826,182.924c-1.53-1.836-3.061-3.06-4.59-3.978c4.896-5.814,8.262-12.852,8.874-21.42
		c1.529-16.524-10.404-31.212-22.645-40.392c-11.628-8.874-27.846-13.771-42.228-8.874c-16.524,5.814-22.338,25.092-22.645,41.31
		c-28.458-5.814-57.222-4.284-86.292-0.306c-0.306-12.852-0.306-25.704,0.307-38.556c0.611-11.628,3.365-22.95,5.201-34.272
		c25.093,6.12,59.977-15.912,47.431-44.064c-14.382-31.518-46.818-23.562-64.261-1.53c-6.426-30.294-45.287-41.616-74.052-18.666
		c-18.36,14.688-21.114,38.25-7.344,57.222c9.18,12.852,44.064,32.436,49.572,6.732c0-0.306-0.306-0.612-0.612-0.612
		c-28.151,21.42-63.954-37.026-27.54-58.446c26.929-15.912,62.424-0.306,50.185,33.66c-1.53,6.12,7.649,8.568,9.18,2.448
		c5.508-14.076,34.884-52.938,54.162-22.95c18.972,29.988-15.912,33.354-34.885,32.13c-0.918-2.142-4.283-2.754-5.508-0.612
		c-0.611,0-1.224,0-1.836-0.306c-5.813-0.918-8.874,5.814-3.978,9.486c0.611,0.306,0.918,0.612,1.529,0.918
		c-8.262,23.868-5.201,53.244-0.918,77.112c-11.628,1.53-23.255,3.366-34.884,5.202c4.591-24.174,3.061-48.348,1.225-72.828
		c-0.307-4.284-6.732-4.284-6.732,0c-1.224,24.786,0.612,49.572-3.06,74.052c-28.152,4.896-55.692,7.956-83.539,5.202
		c40.698-35.802-49.878-73.134-79.56-44.37c-29.07,28.458-11.322,79.56,18.972,87.516c-13.77,17.748-17.136,42.84,0.306,60.588
		c11.322,11.628,35.19,11.628,47.124,1.224c14.688-12.852,18.054-29.682,12.546-46.818c27.54,0,55.08-1.836,82.926-4.284
		c-2.447,94.554-7.649,192.168,1.53,286.722c-10.71-9.792-25.397-18.054-38.862-11.628c-12.852,6.12-15.912,21.727-14.076,34.272
		c1.836,14.076,10.098,27.54,24.174,31.824c11.323,3.365,22.644-1.53,32.436-8.874c-1.529,12.852,3.672,25.397,16.219,35.496
		c17.747,14.075,46.512,14.075,60.587-4.896c12.853-16.83,13.158-41.004,2.755-59.058c-7.65-13.771-21.727-16.524-33.967-11.628
		c-14.075-100.368,10.099-197.677,5.814-298.044c24.479-2.754,49.266-5.814,73.134-8.568c4.59-0.612,4.896-7.344,0-7.65
		c-70.992-1.224-144.432,11.934-215.118,21.114c0-0.306-0.306-0.612-0.306-0.918c-1.53-3.366-6.426-1.224-6.12,1.836
		c-2.754,0.306-5.814,0.918-8.568,1.224c-2.142,0.306-2.448,3.366,0,3.672c3.366,0,6.426,0,9.792,0
		c3.366,12.852,1.53,24.174-7.65,35.19c-15.3,18.972-38.862,5.814-43.758-10.71c-4.284-14.382,3.366-29.376,14.382-38.862
		c6.12-1.53,12.852-4.59,19.278-10.098c4.59-3.978-0.306-11.322-5.814-9.792c-4.284,1.224-8.568,2.754-12.24,5.202
		c-33.966,8.568-55.386-44.37-23.562-65.79c21.42-14.382,86.598,1.53,61.812,35.19c-0.918,1.224-0.612,2.448,0.612,3.366
		c-0.612,1.224-0.306,3.06,1.224,3.366c73.44,14.688,147.492-11.934,221.543-7.956c2.448,2.754,7.956,1.53,8.568-3.366
		c1.224-13.77,2.448-31.212,17.442-36.414c11.321-3.978,24.479,2.448,33.048,9.486c8.567,7.038,15.3,17.442,16.218,28.458
		c0.612,9.486-4.59,16.83-11.628,22.644c-7.038,2.142-13.771,7.038-18.666,11.322c-4.59,4.284,1.224,9.792,6.12,7.956
		c5.202-2.142,10.098-4.896,14.382-7.65c10.098,0,12.852,16.218,6.426,29.07c-17.136,35.19-63.954,11.628-67.932-19.89
		c-0.612-4.284-6.732-4.59-7.038,0c-1.224,47.124,61.2,67.32,85.986,26.316C498.7,212.3,499.006,194.858,489.826,182.924z
		 M274.708,510.038c0.612,6.12,9.486,6.427,9.486,0c0.612-98.226,3.672-198.594-3.366-296.514c0,0,0,0,0-0.306
		c13.158-1.224,26.01-2.754,38.862-4.284c-3.061,99.45-34.272,205.632-7.345,303.858l0,0c-3.672,3.365,1.225,9.791,5.508,7.037
		c0.919-0.611,1.837-1.224,2.755-1.836c0.611-0.306,0.918-0.611,1.529-0.918c11.017-6.12,21.114-5.813,28.458,7.345
		c7.038,12.239,6.12,28.458,0.612,41.004c-18.972,40.392-81.09,2.754-63.342-28.152c3.06-3.366,5.814-6.426,7.956-9.792
		c3.365-4.896-3.672-9.18-7.65-5.814l0,0c-9.792,9.181-22.949,24.786-38.25,22.032c-9.792-1.53-14.688-11.934-16.218-20.808
		c-1.53-7.65-0.918-19.278,6.12-23.868C249.616,492.597,265.223,503.307,274.708,510.038L274.708,510.038z"/>
</g>
</svg>